<?xml version="1.0" encoding="UTF-8"?><svg xmlns="http://www.w3.org/2000/svg" xmlns:xlink="http://www.w3.org/1999/xlink" viewBox="0 0 32 32" version="1.1"><path d="M16 5c-4.988 0-5 2-5 2v4h6v1H7s-3-.46-3 5 3 5 3 5h3v-1.625A4.383 4.383 0 0 1 14.375 16h3.25c1.86 0 3.375-.516 3.375-2.375V7s-.012-2-5-2zm-3 2c.55 0 1 .45 1 1s-.45 1-1 1-1-.45-1-1 .45-1 1-1zm9 4v2.625C22 16.035 20.035 17 17.625 17h-3.25A3.38 3.38 0 0 0 11 20.375V26s.063 2 5 2c4.938 0 5-2 5-2v-4h-6v-1h10s3 .504 3-5-3-5-3-5zm-3 13c.55 0 1 .45 1 1s-.45 1-1 1-1-.45-1-1 .45-1 1-1z" id="surface1"/><metadata><rdf:RDF xmlns:rdf="http://www.w3.org/1999/02/22-rdf-syntax-ns#" xmlns:rdfs="http://www.w3.org/2000/01/rdf-schema#" xmlns:dc="http://purl.org/dc/elements/1.1/"><rdf:Description about="https://iconscout.com/legal#licenses" dc:title="python" dc:description="python" dc:publisher="Iconscout" dc:date="2017-12-30" dc:format="image/svg+xml" dc:language="en"><dc:creator><rdf:Bag><rdf:li>Icons8</rdf:li></rdf:Bag></dc:creator></rdf:Description></rdf:RDF></metadata></svg>